<svg xmlns="http://www.w3.org/2000/svg" viewBox="0 0 64 64"><defs><style>.cls-1{fill:#aa752e;}.cls-2{fill:#74d800;}.cls-3{fill:#ff2401;}</style></defs><title>Fruit Apple</title><g id="Layer_2" data-name="Layer 2"><g id="Layer_1-2" data-name="Layer 1"><path class="cls-1" d="M32,0h0a2,2,0,0,1,2,2V18a0,0,0,0,1,0,0H30a0,0,0,0,1,0,0V2a2,2,0,0,1,2-2Z"/><path class="cls-2" d="M32,14h0A13.45,13.45,0,0,1,42.19,1L46,0,45,3.81A13.45,13.45,0,0,1,32,14Z"/><path class="cls-2" d="M32,14h0A13.45,13.45,0,0,0,21.81,1L18,0l1,3.81A13.45,13.45,0,0,0,32,14Z"/><path class="cls-3" d="M42.89,12A40,40,0,0,0,32,13.79,40,40,0,0,0,21.11,12C4.09,12,0,25.75,0,32.92,0,46.07,10.21,64,23.83,64,29.28,64,32,62.21,32,62.21S34.72,64,40.17,64C53.79,64,64,46.07,64,32.92,64,25.75,59.91,12,42.89,12Z"/></g></g></svg>